<mxfile host="app.diagrams.net" modified="2020-10-23T06:21:36.369Z" agent="5.0 (Windows NT 10.0; Win64; x64) AppleWebKit/537.36 (KHTML, like Gecko) Chrome/86.0.4240.75 Safari/537.36" etag="422lSCRDdPhbloFardSw" version="13.8.0" type="github">
  <diagram name="Page-1" id="b33cb84f-bf7a-9ccf-f142-242d16432e5d">
    <mxGraphModel dx="1102" dy="582" grid="1" gridSize="10" guides="1" tooltips="1" connect="1" arrows="1" fold="1" page="1" pageScale="1.5" pageWidth="1169" pageHeight="826" background="#ffffff" math="0" shadow="0">
      <root>
        <mxCell id="0" style=";html=1;" />
        <mxCell id="1" style=";html=1;" parent="0" />
        <mxCell id="-vPZNcomkNUSN_7R_Doy-1" value="" style="shape=image;imageAspect=0;aspect=fixed;verticalLabelPosition=bottom;verticalAlign=top;image=https://www.flaticon.com/svg/static/icons/svg/226/226633.svg;direction=east;" vertex="1" parent="1">
          <mxGeometry x="400" y="150" width="230" height="230" as="geometry" />
        </mxCell>
        <mxCell id="-vPZNcomkNUSN_7R_Doy-2" value="" style="shape=mxgraph.signs.transportation.car_1;html=1;pointerEvents=1;fillColor=#1ba1e2;strokeColor=#006EAF;verticalLabelPosition=bottom;verticalAlign=top;align=center;fontColor=#ffffff;" vertex="1" parent="1">
          <mxGeometry x="660" y="292" width="99" height="88" as="geometry" />
        </mxCell>
        <mxCell id="-vPZNcomkNUSN_7R_Doy-4" value="&lt;font style=&quot;font-size: 24px&quot; color=&quot;#ffffff&quot;&gt;&lt;b style=&quot;background-color: rgb(0 , 127 , 255)&quot;&gt;OBU&lt;/b&gt;&lt;/font&gt;" style="text;html=1;resizable=0;autosize=1;align=center;verticalAlign=middle;points=[];fillColor=none;strokeColor=none;rounded=0;" vertex="1" parent="1">
          <mxGeometry x="674.5" y="320" width="70" height="20" as="geometry" />
        </mxCell>
        <mxCell id="-vPZNcomkNUSN_7R_Doy-10" value="" style="points=[];aspect=fixed;html=1;align=center;shadow=0;dashed=0;image;image=img/lib/allied_telesis/wireless/Access_Point_Outdoor.svg;sketch=0;" vertex="1" parent="1">
          <mxGeometry x="570" y="110" width="20.72" height="80" as="geometry" />
        </mxCell>
        <mxCell id="-vPZNcomkNUSN_7R_Doy-7" value="&lt;font style=&quot;font-size: 18px ; background-color: rgb(0 , 0 , 0)&quot; color=&quot;#ffffff&quot;&gt;RSU&lt;/font&gt;" style="text;html=1;resizable=0;autosize=1;align=center;verticalAlign=middle;points=[];fillColor=none;strokeColor=none;rounded=0;" vertex="1" parent="1">
          <mxGeometry x="580" y="130" width="50" height="20" as="geometry" />
        </mxCell>
        <mxCell id="-vPZNcomkNUSN_7R_Doy-11" value="" style="fontColor=#ffffff;verticalAlign=top;verticalLabelPosition=bottom;labelPosition=center;align=center;html=1;outlineConnect=0;fillColor=#647687;strokeColor=#314354;gradientDirection=north;strokeWidth=2;shape=mxgraph.networks.satellite;" vertex="1" parent="1">
          <mxGeometry x="720" y="60" width="70" height="70" as="geometry" />
        </mxCell>
        <mxCell id="-vPZNcomkNUSN_7R_Doy-12" value="" style="verticalAlign=top;verticalLabelPosition=bottom;labelPosition=center;align=center;html=1;outlineConnect=0;fillColor=#bac8d3;strokeColor=#23445d;gradientDirection=north;strokeWidth=2;shape=mxgraph.networks.rack;" vertex="1" parent="1">
          <mxGeometry x="390" y="280" width="50" height="100" as="geometry" />
        </mxCell>
        <mxCell id="-vPZNcomkNUSN_7R_Doy-15" value="&lt;b&gt;&lt;font style=&quot;font-size: 14px&quot;&gt;V2X Hub&lt;/font&gt;&lt;/b&gt;" style="rounded=1;whiteSpace=wrap;html=1;shadow=0;glass=0;sketch=0;strokeColor=#10739e;fillColor=#b1ddf0;gradientColor=#ffffff;gradientDirection=north;arcSize=25;strokeWidth=2;" vertex="1" parent="1">
          <mxGeometry x="260" y="290" width="120" height="42" as="geometry" />
        </mxCell>
        <mxCell id="-vPZNcomkNUSN_7R_Doy-16" value="&lt;b&gt;&lt;font style=&quot;font-size: 14px&quot;&gt;Traffic Signal Controller&lt;/font&gt;&lt;/b&gt;" style="rounded=1;whiteSpace=wrap;html=1;shadow=0;glass=0;sketch=0;strokeColor=#10739e;fillColor=#b1ddf0;gradientColor=#ffffff;gradientDirection=north;arcSize=25;strokeWidth=2;" vertex="1" parent="1">
          <mxGeometry x="260" y="340" width="120" height="40" as="geometry" />
        </mxCell>
      </root>
    </mxGraphModel>
  </diagram>
</mxfile>
